<svg width="24" height="24" fill="none" xmlns="http://www.w3.org/2000/svg"><path fill-rule="evenodd" clip-rule="evenodd" d="M6.497 4.201c-2.887.183-5.22 2.396-5.404 5.283-.056.874-.093 1.79-.093 2.682 0 .892.037 1.808.093 2.682.184 2.886 2.517 5.1 5.404 5.283 1.74.11 3.713.2 5.503.2 1.648 0 3.45-.076 5.084-.174l2.982 1.249a.384.384 0 0 0 .532-.355v-2.047a5.636 5.636 0 0 0 2.306-4.193c.058-.879.096-1.787.096-2.645 0-.858-.038-1.767-.096-2.646-.19-2.902-2.533-5.138-5.436-5.321C15.735 4.089 13.778 4 12 4c-1.79 0-3.762.09-5.503.201z" fill="url(#paint0_linear_113_84)"/><path d="M3.505 9.872c.148-1.804 1.621-3.167 3.427-3.282C8.46 6.493 10.33 6.402 12 6.402c1.66 0 3.521.09 5.043.187 1.818.115 3.298 1.493 3.449 3.308.062.741.106 1.532.106 2.269 0 .737-.044 1.528-.106 2.269-.151 1.815-1.63 3.193-3.449 3.308-1.522.097-3.382.187-5.043.187-1.67 0-3.541-.09-5.068-.188-1.806-.116-3.279-1.478-3.427-3.282a28.534 28.534 0 0 1-.103-2.294c0-.768.043-1.561.103-2.294z" fill="#141519"/><path d="M16.948 10.149l-2.018 1.994 2.018 2.04" stroke="#fff" stroke-width="1.153"/><path fill="#fff" d="M7.052 9.86H8.301V14.471H7.052z"/><defs><linearGradient id="paint0_linear_113_84" x1="12" y1="4" x2="22.983" y2="20.325" gradientUnits="userSpaceOnUse"><stop stop-color="#54FACF"/><stop offset="1" stop-color="#E6F4BD"/></linearGradient></defs></svg>